# xmcd CD database file
#
# Track frame offsets:
#	150
#	28251
#	45872
#	87804
#	109648
#	132890
#	156116
#	184142
#	218091
#	237222
#
# Disc length: 3779 seconds
#
# Revision: 0
# Processed by: cddbd v1.5.1PL0 Copyright (c) Steve Scherf et al.
# Submitted via: CDex 1.60beta1
#
DISCID=780ec10a
DTITLE=Marilynn Seits - Threads of Violet Light
DYEAR=2001
DGENRE=New Age
TTITLE0=Dawn
TTITLE1=Early Morning
TTITLE2=Mid-Morning
TTITLE3=Late Morning
TTITLE4=Mid-Day
TTITLE5=Early Afternoon
TTITLE6=Late Afternoon
TTITLE7=Early Evening
TTITLE8=Night
TTITLE9=Pre-Dawn
EXTD=YEAR: 2001
EXTT0=
EXTT1=
EXTT2=
EXTT3=
EXTT4=
EXTT5=
EXTT6=
EXTT7=
EXTT8=
EXTT9=
PLAYORDER=
